# xmcd
#
# Track frame offsets:
#	182
#	21045
#	36500
#	58542
#	72105
#	95050
#	108710
#	125425
#	131162
#	153210
#	177080
#
# Disc length: 2542 seconds
#
# Revision: 1
# Processed by: cddbd v1.5.2PL0 Copyright (c) Steve Scherf et al.
# Submitted via: audiograbber 1.83.01
#
DISCID=9709ec0b
DTITLE=Daniel Weaver - Daniel Weaver
DYEAR=1994
DGENRE=Country
TTITLE0=Weeds
TTITLE1=Free as a Con
TTITLE2=If You See Me
TTITLE3=Chocolate Covered Runway
TTITLE4=It Scares Me
TTITLE5=Asylum Street
TTITLE6=Angelina Mae
TTITLE7=Jam at OFI
TTITLE8=Hunaya
TTITLE9=Remember
TTITLE10=Open Road
EXTD=
EXTT0=
EXTT1=
EXTT2=
EXTT3=
EXTT4=
EXTT5=
EXTT6=
EXTT7=
EXTT8=
EXTT9=
EXTT10=
PLAYORDER=
